<?xml version="1.0" encoding="UTF-8" standalone="no"?>
<!DOCTYPE svg PUBLIC "-//W3C//DTD SVG 1.1//EN" "http://www.w3.org/Graphics/SVG/1.1/DTD/svg11.dtd">
<!-- Created with Vectornator (http://vectornator.io/) -->
<svg height="512.0px" stroke-miterlimit="10" style="fill-rule:nonzero;clip-rule:evenodd;stroke-linecap:round;stroke-linejoin:round;" version="1.1" viewBox="0 0 1024 512" width="1024.0px" xml:space="preserve" xmlns="http://www.w3.org/2000/svg" xmlns:xlink="http://www.w3.org/1999/xlink">
<defs/>
<g id="Слой-1">
<g opacity="1">
<path d="M190.332 110.239L321.798 401.761L263.369 401.761L166.334 177.433L72.6381 401.761L15.878 401.761L145.049 110.239L190.332 110.239Z" fill="#000000" fill-rule="nonzero" opacity="1" stroke="none"/>
</g>
<g opacity="1">
<path d="M202.844 282.374C168.037 297.597 117.565 334.936 70.4537 381.89L70.4421 381.863L55.2856 397.861L60.5025 401.761L72.8306 386.625C98.0821 361.156 165.724 295.122 263.553 266.148C263.553 266.148 299.67 256.441 337.319 239.551C328.153 243.662 311.328 247.312 301.979 250.091C277.443 257.383 248.256 262.509 202.844 282.374Z" fill="#000000" fill-rule="nonzero" opacity="1" stroke="#ffffff" stroke-linecap="butt" stroke-linejoin="round" stroke-width="1.10526"/>
<path d="M78.7669 336.711C65.9354 357.624 61.4274 375.035 62.5754 380.492L66.4644 381.588C83.4696 362.37 157.89 296.369 197.188 280.218C237.904 263.483 267.916 255.526 292.679 250.534C301.375 248.782 310.655 245.704 319.174 242.399C329.606 238.072 340.287 233.31 349.849 228.399L323.828 236.615L337.841 224.396L313.788 238.14L331.798 220.827C302.284 215.315 271.518 222.19 271.518 222.19C257.262 231.854 242.976 249.591 242.976 249.591C245.518 239.426 256.647 226.083 256.647 226.083C250.953 226.966 228.699 232.514 228.699 232.514C217.132 237.65 208.458 257.281 208.458 257.281C208.948 248.712 219.561 234.917 219.561 234.917C188.17 242.864 161.413 263.928 161.413 263.928C140.676 286.377 145.894 309.922 143.117 303.854C140.34 297.787 146.265 280.18 146.265 280.18C110.441 299.315 103.826 311.438 103.826 311.438C95.8324 321.623 82.9925 351.274 82.9925 351.274C81.1328 347.64 88.3485 332.263 88.3485 332.263C77.4634 344.743 76.9163 359.2 76.9163 359.2C73.9793 357.126 78.7669 336.711 78.7669 336.711Z" fill="#000000" fill-rule="nonzero" opacity="1" stroke="#ffffff" stroke-linecap="butt" stroke-linejoin="round" stroke-width="1.10526"/>
<path d="M347.283 237.523C347.283 237.523 333.463 244.984 316.607 251.523C289.957 262.577 265.002 270.721 265.002 270.721C169.059 296.151 100.883 362.554 78.0732 385.482L86.1266 387.751C89.6158 386.271 94.3753 385.755 113.682 385.616C138.075 385.441 155.37 375.598 155.37 375.598C155.37 375.598 131.549 381.324 122.177 377.441C112.806 373.558 98.7497 373.535 98.7497 373.535C98.7497 373.535 94.4235 369.83 119.985 373.093C145.547 376.357 193.643 360.269 193.643 360.269C193.643 360.269 176.425 362.257 169.467 359.673C162.509 357.089 144.737 352.706 144.737 352.706C157.165 353.305 167.615 357.909 187.315 356.203C207.016 354.497 205.863 354.796 205.863 354.796C227.937 353.759 242.216 335.192 242.216 335.192C238.347 335.553 210.77 331.305 200.632 324.928C190.493 318.55 170.734 316.505 170.734 316.505C190.217 315.569 193.419 319.374 197.822 320.407C202.229 321.441 215.954 326.55 246.555 324.81C277.157 323.07 288.425 313.392 288.425 313.392L268.903 310.605C281.77 311.999 297.907 307.772 297.907 307.772C288.749 307.679 275.168 305.095 275.168 305.095C291.771 306.044 301.83 303.696 301.83 303.696C319.609 296.684 327.624 281.117 327.624 281.117C304.847 282.367 289.348 274.479 289.348 274.479C318.381 280.588 328.351 275.517 332.791 274.906C337.238 274.292 340.881 267.599 340.881 267.599C325.026 268.729 308.46 264.993 308.46 264.993C326.889 267.23 344.536 262.563 344.536 262.563L347.054 253.624C339.131 255.59 326.265 255.231 326.265 255.231L348.369 248.402C351.124 242.646 347.283 237.523 347.283 237.523Z" fill="#000000" fill-rule="nonzero" opacity="1" stroke="#ffffff" stroke-linecap="butt" stroke-linejoin="round" stroke-width="1.10526"/>
</g>
<g opacity="1">
<path d="M458.426 242.376L398.916 242.376L385.871 271.252L377.809 271.252L425.006 168.648L432.482 168.648L479.68 271.252L471.618 271.252L458.426 242.376ZM455.641 236.073L428.671 176.856L401.847 236.073L455.641 236.073Z" fill="#000000" fill-rule="nonzero" opacity="1" stroke="none"/>
<path d="M570.312 218.484C577.934 219.754 583.675 222.539 587.535 226.839C591.395 231.139 593.325 236.855 593.325 243.988C593.325 252.783 590.247 259.526 584.09 264.216C577.934 268.907 568.798 271.252 556.681 271.252L512.561 271.252L512.561 168.648L553.896 168.648C564.645 168.648 573.024 170.896 579.034 175.391C585.043 179.886 588.048 186.335 588.048 194.739C588.048 200.7 586.484 205.683 583.358 209.69C580.231 213.696 575.882 216.628 570.312 218.484ZM520.036 216.139L553.749 216.139C562.348 216.139 568.944 214.38 573.537 210.862C578.13 207.344 580.426 202.263 580.426 195.618C580.426 188.876 578.13 183.746 573.537 180.228C568.944 176.71 562.348 174.951 553.749 174.951L520.036 174.951L520.036 216.139ZM556.827 264.949C576.175 264.949 585.849 257.816 585.849 243.549C585.849 236.22 583.406 230.845 578.521 227.425C573.635 224.005 566.404 222.295 556.827 222.295L520.036 222.295L520.036 264.949L556.827 264.949Z" fill="#000000" fill-rule="nonzero" opacity="1" stroke="none"/>
<path d="M699.055 242.376L639.545 242.376L626.499 271.252L618.438 271.252L665.635 168.648L673.111 168.648L720.308 271.252L712.247 271.252L699.055 242.376ZM696.27 236.073L669.3 176.856L642.476 236.073L696.27 236.073Z" fill="#000000" fill-rule="nonzero" opacity="1" stroke="none"/>
<path d="M830.876 168.648L830.876 271.252L823.4 271.252L823.4 175.391L770.339 175.391L769.02 213.061C768.434 227.132 767.237 238.443 765.429 246.993C763.621 255.544 760.958 261.871 757.441 265.975C753.923 270.079 749.281 272.131 743.516 272.131C740.878 272.131 738.435 271.838 736.187 271.252L737.067 264.363C738.728 264.754 740.34 264.949 741.904 264.949C746.399 264.949 750.039 263.214 752.823 259.745C755.608 256.276 757.734 250.78 759.2 243.256C760.665 235.731 761.643 225.715 762.131 213.207L763.597 168.648L830.876 168.648Z" fill="#000000" fill-rule="nonzero" opacity="1" stroke="none"/>
<path d="M920.629 206.172C932.746 206.172 941.956 208.859 948.258 214.233C954.561 219.608 957.713 227.572 957.713 238.125C957.713 248.972 954.366 257.205 947.672 262.824C940.978 268.442 931.329 271.252 918.723 271.252L879.441 271.252L879.441 168.648L886.916 168.648L886.916 206.172L920.629 206.172ZM918.87 264.949C929.13 264.949 936.899 262.701 942.176 258.206C947.452 253.711 950.091 247.067 950.091 238.272C950.091 221.074 939.684 212.475 918.87 212.475L886.916 212.475L886.916 264.949L918.87 264.949Z" fill="#000000" fill-rule="nonzero" opacity="1" stroke="none"/>
</g>
<path d="M380 311.938L980 311.938" fill="none" opacity="1" stroke="#000000" stroke-linecap="butt" stroke-linejoin="round" stroke-width="5.71828"/>
<g opacity="1">
<path d="M392.772 347.816L410.827 347.816L410.827 349.445L394.617 349.445L394.617 358.562L403.192 358.562C406.159 358.562 408.415 359.165 409.958 360.371C411.502 361.577 412.274 363.35 412.274 365.69C412.274 368.102 411.454 369.947 409.814 371.226C408.173 372.504 405.798 373.144 402.686 373.144L392.772 373.144L392.772 347.816ZM402.722 371.588C405.255 371.588 407.172 371.099 408.475 370.122C409.777 369.145 410.429 367.692 410.429 365.762C410.429 361.975 407.86 360.082 402.722 360.082L394.617 360.082L394.617 371.588L402.722 371.588Z" fill="#000000" fill-rule="nonzero" opacity="1" stroke="none"/>
<path d="M433.078 354.257L423.382 375.712C422.658 377.377 421.82 378.559 420.867 379.258C419.914 379.958 418.787 380.308 417.484 380.308C416.616 380.308 415.802 380.163 415.042 379.873C414.282 379.584 413.637 379.162 413.106 378.607L414.011 377.232C414.976 378.221 416.145 378.716 417.52 378.716C418.437 378.716 419.221 378.462 419.872 377.956C420.523 377.449 421.126 376.581 421.681 375.351L422.694 373.071L414.192 354.257L416.109 354.257L423.671 371.154L431.233 354.257L433.078 354.257Z" fill="#000000" fill-rule="nonzero" opacity="1" stroke="none"/>
<path d="M448.202 373.144L441.726 364.713L435.249 373.144L433.187 373.144L440.677 363.411L433.585 354.257L435.647 354.257L441.726 362.108L447.804 354.257L449.831 354.257L442.739 363.411L450.337 373.144L448.202 373.144Z" fill="#000000" fill-rule="nonzero" opacity="1" stroke="none"/>
<path d="M467.849 355.885L456.741 355.885L456.741 373.144L454.932 373.144L454.932 354.257L467.849 354.257L467.849 355.885Z" fill="#000000" fill-rule="nonzero" opacity="1" stroke="none"/>
<path d="M477.98 354.112C480.32 354.112 482.117 354.709 483.371 355.903C484.625 357.097 485.252 358.852 485.252 361.167L485.252 373.144L483.516 373.144L483.516 369.779C482.913 370.888 482.032 371.751 480.874 372.366C479.717 372.981 478.33 373.288 476.714 373.288C474.615 373.288 472.957 372.794 471.739 371.805C470.52 370.816 469.911 369.513 469.911 367.897C469.911 366.329 470.472 365.057 471.594 364.08C472.715 363.103 474.506 362.615 476.967 362.615L483.443 362.615L483.443 361.095C483.443 359.334 482.967 357.995 482.014 357.079C481.061 356.162 479.668 355.704 477.835 355.704C476.581 355.704 475.381 355.921 474.235 356.355C473.089 356.789 472.118 357.368 471.322 358.092L470.418 356.789C471.359 355.945 472.492 355.288 473.819 354.818C475.146 354.347 476.533 354.112 477.98 354.112ZM476.967 371.805C478.535 371.805 479.867 371.443 480.965 370.719C482.062 369.996 482.889 368.946 483.443 367.572L483.443 364.026L477.003 364.026C475.146 364.026 473.801 364.363 472.969 365.039C472.137 365.714 471.72 366.643 471.72 367.825C471.72 369.055 472.179 370.026 473.095 370.737C474.012 371.449 475.302 371.805 476.967 371.805Z" fill="#000000" fill-rule="nonzero" opacity="1" stroke="none"/>
<path d="M507.359 354.257L507.359 373.144L505.55 373.144L505.55 355.885L495.709 355.885L495.456 360.914C495.311 363.519 495.094 365.702 494.804 367.463C494.515 369.224 494.02 370.647 493.321 371.732C492.621 372.818 491.657 373.361 490.426 373.361C490.065 373.361 489.546 373.276 488.871 373.107L489.051 371.552C489.437 371.648 489.727 371.696 489.92 371.696C490.933 371.696 491.705 371.202 492.235 370.213C492.766 369.224 493.128 367.994 493.321 366.522C493.514 365.051 493.671 363.133 493.791 360.769L494.117 354.257L507.359 354.257Z" fill="#000000" fill-rule="nonzero" opacity="1" stroke="none"/>
<path d="M527.802 355.885L520.421 355.885L520.421 373.144L518.612 373.144L518.612 355.885L511.231 355.885L511.231 354.257L527.802 354.257L527.802 355.885Z" fill="#000000" fill-rule="nonzero" opacity="1" stroke="none"/>
<path d="M546.906 364.134L530.66 364.134C530.709 365.606 531.082 366.914 531.782 368.06C532.481 369.206 533.428 370.092 534.622 370.719C535.816 371.347 537.161 371.66 538.656 371.66C539.887 371.66 541.026 371.437 542.076 370.991C543.125 370.544 543.999 369.887 544.699 369.019L545.748 370.213C544.928 371.202 543.897 371.962 542.655 372.492C541.412 373.023 540.068 373.288 538.62 373.288C536.739 373.288 535.062 372.878 533.591 372.058C532.12 371.238 530.968 370.104 530.136 368.657C529.304 367.21 528.887 365.557 528.887 363.7C528.887 361.867 529.279 360.221 530.063 358.761C530.847 357.302 531.927 356.162 533.302 355.342C534.676 354.522 536.22 354.112 537.933 354.112C539.645 354.112 541.183 354.516 542.546 355.324C543.909 356.132 544.982 357.26 545.766 358.707C546.55 360.154 546.942 361.795 546.942 363.628L546.906 364.134ZM537.933 355.704C536.606 355.704 535.412 355.999 534.351 356.59C533.29 357.181 532.439 358.014 531.8 359.087C531.161 360.16 530.793 361.372 530.696 362.723L545.169 362.723C545.097 361.372 544.735 360.166 544.084 359.105C543.432 358.044 542.576 357.212 541.515 356.609C540.453 356.006 539.259 355.704 537.933 355.704Z" fill="#000000" fill-rule="nonzero" opacity="1" stroke="none"/>
<path d="M562.355 354.112C564.116 354.112 565.708 354.522 567.131 355.342C568.555 356.162 569.67 357.296 570.478 358.743C571.286 360.191 571.69 361.843 571.69 363.7C571.69 365.557 571.286 367.216 570.478 368.675C569.67 370.134 568.555 371.268 567.131 372.076C565.708 372.884 564.116 373.288 562.355 373.288C560.691 373.288 559.184 372.896 557.833 372.112C556.482 371.328 555.433 370.237 554.685 368.838L554.685 380.163L552.876 380.163L552.876 354.257L554.613 354.257L554.613 358.707C555.36 357.26 556.416 356.132 557.778 355.324C559.141 354.516 560.667 354.112 562.355 354.112ZM562.247 371.66C563.694 371.66 564.997 371.322 566.154 370.647C567.312 369.972 568.223 369.031 568.886 367.825C569.55 366.619 569.881 365.244 569.881 363.7C569.881 362.156 569.55 360.781 568.886 359.575C568.223 358.369 567.312 357.429 566.154 356.753C564.997 356.078 563.694 355.74 562.247 355.74C560.8 355.74 559.503 356.078 558.357 356.753C557.212 357.429 556.307 358.369 555.644 359.575C554.98 360.781 554.649 362.156 554.649 363.7C554.649 365.244 554.98 366.619 555.644 367.825C556.307 369.031 557.212 369.972 558.357 370.647C559.503 371.322 560.8 371.66 562.247 371.66Z" fill="#000000" fill-rule="nonzero" opacity="1" stroke="none"/>
<path d="M585.222 373.288C583.389 373.288 581.749 372.878 580.302 372.058C578.854 371.238 577.721 370.098 576.9 368.639C576.08 367.18 575.67 365.533 575.67 363.7C575.67 361.843 576.08 360.184 576.9 358.725C577.721 357.266 578.854 356.132 580.302 355.324C581.749 354.516 583.389 354.112 585.222 354.112C586.742 354.112 588.123 354.407 589.365 354.998C590.607 355.589 591.614 356.452 592.386 357.585L591.047 358.562C590.372 357.622 589.534 356.916 588.533 356.446C587.532 355.975 586.428 355.74 585.222 355.74C583.751 355.74 582.43 356.072 581.26 356.735C580.09 357.398 579.174 358.333 578.511 359.539C577.847 360.745 577.516 362.132 577.516 363.7C577.516 365.268 577.847 366.655 578.511 367.861C579.174 369.067 580.09 370.002 581.26 370.665C582.43 371.328 583.751 371.66 585.222 371.66C586.428 371.66 587.532 371.425 588.533 370.955C589.534 370.484 590.372 369.779 591.047 368.838L592.386 369.815C591.614 370.949 590.607 371.811 589.365 372.402C588.123 372.993 586.742 373.288 585.222 373.288Z" fill="#000000" fill-rule="nonzero" opacity="1" stroke="none"/>
<path d="M604.145 364.388L599.55 364.388L599.55 373.144L597.741 373.144L597.741 354.257L599.55 354.257L599.55 362.832L604.145 362.832L611.273 354.257L613.263 354.257L605.592 363.411L613.842 373.144L611.671 373.144L604.145 364.388Z" fill="#000000" fill-rule="nonzero" opacity="1" stroke="none"/>
<path d="M625.131 373.288C623.346 373.288 621.736 372.878 620.3 372.058C618.865 371.238 617.737 370.098 616.917 368.639C616.097 367.18 615.687 365.533 615.687 363.7C615.687 361.867 616.097 360.221 616.917 358.761C617.737 357.302 618.865 356.162 620.3 355.342C621.736 354.522 623.346 354.112 625.131 354.112C626.916 354.112 628.526 354.522 629.961 355.342C631.396 356.162 632.524 357.302 633.344 358.761C634.164 360.221 634.574 361.867 634.574 363.7C634.574 365.533 634.164 367.18 633.344 368.639C632.524 370.098 631.396 371.238 629.961 372.058C628.526 372.878 626.916 373.288 625.131 373.288ZM625.131 371.66C626.578 371.66 627.874 371.322 629.02 370.647C630.166 369.972 631.07 369.031 631.734 367.825C632.397 366.619 632.729 365.244 632.729 363.7C632.729 362.156 632.397 360.781 631.734 359.575C631.07 358.369 630.166 357.429 629.02 356.753C627.874 356.078 626.578 355.74 625.131 355.74C623.683 355.74 622.387 356.078 621.241 356.753C620.095 357.429 619.191 358.369 618.527 359.575C617.864 360.781 617.532 362.156 617.532 363.7C617.532 365.244 617.864 366.619 618.527 367.825C619.191 369.031 620.095 369.972 621.241 370.647C622.387 371.322 623.683 371.66 625.131 371.66Z" fill="#000000" fill-rule="nonzero" opacity="1" stroke="none"/>
<path d="M656.572 364.134L640.327 364.134C640.375 365.606 640.749 366.914 641.448 368.06C642.148 369.206 643.095 370.092 644.289 370.719C645.483 371.347 646.827 371.66 648.323 371.66C649.553 371.66 650.693 371.437 651.742 370.991C652.791 370.544 653.666 369.887 654.365 369.019L655.415 370.213C654.594 371.202 653.563 371.962 652.321 372.492C651.079 373.023 649.734 373.288 648.287 373.288C646.405 373.288 644.729 372.878 643.258 372.058C641.786 371.238 640.634 370.104 639.802 368.657C638.97 367.21 638.554 365.557 638.554 363.7C638.554 361.867 638.946 360.221 639.73 358.761C640.514 357.302 641.593 356.162 642.968 355.342C644.343 354.522 645.887 354.112 647.599 354.112C649.312 354.112 650.85 354.516 652.213 355.324C653.575 356.132 654.649 357.26 655.433 358.707C656.217 360.154 656.609 361.795 656.609 363.628L656.572 364.134ZM647.599 355.704C646.273 355.704 645.079 355.999 644.017 356.59C642.956 357.181 642.106 358.014 641.467 359.087C640.827 360.16 640.46 361.372 640.363 362.723L654.836 362.723C654.763 361.372 654.401 360.166 653.75 359.105C653.099 358.044 652.243 357.212 651.181 356.609C650.12 356.006 648.926 355.704 647.599 355.704Z" fill="#000000" fill-rule="nonzero" opacity="1" stroke="none"/>
<path d="M679.439 373.288C677.606 373.288 675.966 372.878 674.518 372.058C673.071 371.238 671.938 370.098 671.117 368.639C670.297 367.18 669.887 365.533 669.887 363.7C669.887 361.843 670.297 360.184 671.117 358.725C671.938 357.266 673.071 356.132 674.518 355.324C675.966 354.516 677.606 354.112 679.439 354.112C680.959 354.112 682.34 354.407 683.582 354.998C684.824 355.589 685.831 356.452 686.603 357.585L685.264 358.562C684.589 357.622 683.751 356.916 682.75 356.446C681.749 355.975 680.645 355.74 679.439 355.74C677.968 355.74 676.647 356.072 675.477 356.735C674.307 357.398 673.391 358.333 672.727 359.539C672.064 360.745 671.732 362.132 671.732 363.7C671.732 365.268 672.064 366.655 672.727 367.861C673.391 369.067 674.307 370.002 675.477 370.665C676.647 371.328 677.968 371.66 679.439 371.66C680.645 371.66 681.749 371.425 682.75 370.955C683.751 370.484 684.589 369.779 685.264 368.838L686.603 369.815C685.831 370.949 684.824 371.811 683.582 372.402C682.34 372.993 680.959 373.288 679.439 373.288Z" fill="#000000" fill-rule="nonzero" opacity="1" stroke="none"/>
<path d="M699.158 373.288C697.373 373.288 695.763 372.878 694.328 372.058C692.893 371.238 691.765 370.098 690.945 368.639C690.125 367.18 689.715 365.533 689.715 363.7C689.715 361.867 690.125 360.221 690.945 358.761C691.765 357.302 692.893 356.162 694.328 355.342C695.763 354.522 697.373 354.112 699.158 354.112C700.943 354.112 702.553 354.522 703.988 355.342C705.424 356.162 706.551 357.302 707.371 358.761C708.192 360.221 708.602 361.867 708.602 363.7C708.602 365.533 708.192 367.18 707.371 368.639C706.551 370.098 705.424 371.238 703.988 372.058C702.553 372.878 700.943 373.288 699.158 373.288ZM699.158 371.66C700.605 371.66 701.902 371.322 703.048 370.647C704.193 369.972 705.098 369.031 705.761 367.825C706.425 366.619 706.756 365.244 706.756 363.7C706.756 362.156 706.425 360.781 705.761 359.575C705.098 358.369 704.193 357.429 703.048 356.753C701.902 356.078 700.605 355.74 699.158 355.74C697.711 355.74 696.414 356.078 695.269 356.753C694.123 357.429 693.218 358.369 692.555 359.575C691.892 360.781 691.56 362.156 691.56 363.7C691.56 365.244 691.892 366.619 692.555 367.825C693.218 369.031 694.123 369.972 695.269 370.647C696.414 371.322 697.711 371.66 699.158 371.66Z" fill="#000000" fill-rule="nonzero" opacity="1" stroke="none"/>
<path d="M730.998 354.257L730.998 373.144L729.189 373.144L729.189 355.885L716.308 355.885L716.308 373.144L714.499 373.144L714.499 354.257L730.998 354.257Z" fill="#000000" fill-rule="nonzero" opacity="1" stroke="none"/>
<path d="M748.329 354.112C750.09 354.112 751.682 354.522 753.105 355.342C754.528 356.162 755.644 357.296 756.452 358.743C757.26 360.191 757.664 361.843 757.664 363.7C757.664 365.557 757.26 367.216 756.452 368.675C755.644 370.134 754.528 371.268 753.105 372.076C751.682 372.884 750.09 373.288 748.329 373.288C746.665 373.288 745.157 372.896 743.806 372.112C742.456 371.328 741.406 370.237 740.659 368.838L740.659 380.163L738.849 380.163L738.849 354.257L740.586 354.257L740.586 358.707C741.334 357.26 742.389 356.132 743.752 355.324C745.115 354.516 746.641 354.112 748.329 354.112ZM748.22 371.66C749.668 371.66 750.97 371.322 752.128 370.647C753.286 369.972 754.196 369.031 754.86 367.825C755.523 366.619 755.855 365.244 755.855 363.7C755.855 362.156 755.523 360.781 754.86 359.575C754.196 358.369 753.286 357.429 752.128 356.753C750.97 356.078 749.668 355.74 748.22 355.74C746.773 355.74 745.477 356.078 744.331 356.753C743.185 357.429 742.281 358.369 741.617 359.575C740.954 360.781 740.622 362.156 740.622 363.7C740.622 365.244 740.954 366.619 741.617 367.825C742.281 369.031 743.185 369.972 744.331 370.647C745.477 371.322 746.773 371.66 748.22 371.66Z" fill="#000000" fill-rule="nonzero" opacity="1" stroke="none"/>
<path d="M771.087 373.288C769.302 373.288 767.692 372.878 766.257 372.058C764.822 371.238 763.694 370.098 762.874 368.639C762.054 367.18 761.644 365.533 761.644 363.7C761.644 361.867 762.054 360.221 762.874 358.761C763.694 357.302 764.822 356.162 766.257 355.342C767.692 354.522 769.302 354.112 771.087 354.112C772.872 354.112 774.482 354.522 775.918 355.342C777.353 356.162 778.48 357.302 779.3 358.761C780.121 360.221 780.531 361.867 780.531 363.7C780.531 365.533 780.121 367.18 779.3 368.639C778.48 370.098 777.353 371.238 775.918 372.058C774.482 372.878 772.872 373.288 771.087 373.288ZM771.087 371.66C772.535 371.66 773.831 371.322 774.977 370.647C776.123 369.972 777.027 369.031 777.69 367.825C778.354 366.619 778.685 365.244 778.685 363.7C778.685 362.156 778.354 360.781 777.69 359.575C777.027 358.369 776.123 357.429 774.977 356.753C773.831 356.078 772.535 355.74 771.087 355.74C769.64 355.74 768.343 356.078 767.198 356.753C766.052 357.429 765.147 358.369 764.484 359.575C763.821 360.781 763.489 362.156 763.489 363.7C763.489 365.244 763.821 366.619 764.484 367.825C765.147 369.031 766.052 369.972 767.198 370.647C768.343 371.322 769.64 371.66 771.087 371.66Z" fill="#000000" fill-rule="nonzero" opacity="1" stroke="none"/>
<path d="M797.608 363.411C800.382 363.893 801.769 365.449 801.769 368.078C801.769 369.718 801.172 370.973 799.978 371.841C798.784 372.709 796.993 373.144 794.605 373.144L786.428 373.144L786.428 354.257L794.388 354.257C796.487 354.257 798.133 354.673 799.327 355.505C800.521 356.337 801.118 357.525 801.118 359.069C801.118 360.178 800.81 361.101 800.195 361.837C799.58 362.572 798.718 363.097 797.608 363.411ZM788.201 362.868L794.28 362.868C795.896 362.868 797.138 362.56 798.006 361.945C798.875 361.33 799.309 360.444 799.309 359.286C799.309 358.104 798.881 357.218 798.024 356.627C797.168 356.036 795.92 355.74 794.28 355.74L788.201 355.74L788.201 362.868ZM794.569 371.66C798.163 371.66 799.96 370.442 799.96 368.006C799.96 366.727 799.55 365.787 798.73 365.184C797.91 364.581 796.619 364.279 794.859 364.279L788.201 364.279L788.201 371.66L794.569 371.66Z" fill="#000000" fill-rule="nonzero" opacity="1" stroke="none"/>
<path d="M815.735 373.288C813.95 373.288 812.34 372.878 810.905 372.058C809.47 371.238 808.342 370.098 807.522 368.639C806.702 367.18 806.292 365.533 806.292 363.7C806.292 361.867 806.702 360.221 807.522 358.761C808.342 357.302 809.47 356.162 810.905 355.342C812.34 354.522 813.95 354.112 815.735 354.112C817.52 354.112 819.13 354.522 820.566 355.342C822.001 356.162 823.129 357.302 823.949 358.761C824.769 360.221 825.179 361.867 825.179 363.7C825.179 365.533 824.769 367.18 823.949 368.639C823.129 370.098 822.001 371.238 820.566 372.058C819.13 372.878 817.52 373.288 815.735 373.288ZM815.735 371.66C817.183 371.66 818.479 371.322 819.625 370.647C820.771 369.972 821.675 369.031 822.339 367.825C823.002 366.619 823.334 365.244 823.334 363.7C823.334 362.156 823.002 360.781 822.339 359.575C821.675 358.369 820.771 357.429 819.625 356.753C818.479 356.078 817.183 355.74 815.735 355.74C814.288 355.74 812.992 356.078 811.846 356.753C810.7 357.429 809.796 358.369 809.132 359.575C808.469 360.781 808.137 362.156 808.137 363.7C808.137 365.244 808.469 366.619 809.132 367.825C809.796 369.031 810.7 369.972 811.846 370.647C812.992 371.322 814.288 371.66 815.735 371.66Z" fill="#000000" fill-rule="nonzero" opacity="1" stroke="none"/>
<path d="M846.417 364.388L841.967 364.388L841.967 373.144L840.158 373.144L840.158 364.388L835.744 364.388L829.448 373.144L827.241 373.144L834.297 363.447L827.82 354.257L829.81 354.257L835.744 362.832L840.158 362.832L840.158 354.257L841.967 354.257L841.967 362.832L846.417 362.832L852.351 354.257L854.341 354.257L847.865 363.447L854.884 373.144L852.713 373.144L846.417 364.388Z" fill="#000000" fill-rule="nonzero" opacity="1" stroke="none"/>
<path d="M877.353 371.552L877.353 377.847L875.652 377.847L875.652 373.144L857.778 373.144L857.778 377.847L856.042 377.847L856.042 371.552L857.163 371.552C858.442 371.479 859.316 370.484 859.787 368.567C860.257 366.649 860.589 363.953 860.782 360.48L861.035 354.257L874.313 354.257L874.313 371.552L877.353 371.552ZM862.446 360.589C862.325 363.459 862.084 365.847 861.722 367.752C861.36 369.658 860.709 370.924 859.768 371.552L872.504 371.552L872.504 355.885L862.663 355.885L862.446 360.589Z" fill="#000000" fill-rule="nonzero" opacity="1" stroke="none"/>
<path d="M898.808 364.134L882.563 364.134C882.611 365.606 882.985 366.914 883.684 368.06C884.384 369.206 885.331 370.092 886.525 370.719C887.719 371.347 889.063 371.66 890.559 371.66C891.789 371.66 892.929 371.437 893.978 370.991C895.027 370.544 895.902 369.887 896.601 369.019L897.651 370.213C896.83 371.202 895.799 371.962 894.557 372.492C893.315 373.023 891.97 373.288 890.523 373.288C888.641 373.288 886.965 372.878 885.494 372.058C884.022 371.238 882.87 370.104 882.038 368.657C881.206 367.21 880.79 365.557 880.79 363.7C880.79 361.867 881.182 360.221 881.966 358.761C882.75 357.302 883.829 356.162 885.204 355.342C886.579 354.522 888.123 354.112 889.835 354.112C891.548 354.112 893.086 354.516 894.449 355.324C895.811 356.132 896.885 357.26 897.669 358.707C898.453 360.154 898.845 361.795 898.845 363.628L898.808 364.134ZM889.835 355.704C888.509 355.704 887.315 355.999 886.253 356.59C885.192 357.181 884.342 358.014 883.703 359.087C883.063 360.16 882.696 361.372 882.599 362.723L897.072 362.723C896.999 361.372 896.638 360.166 895.986 359.105C895.335 358.044 894.479 357.212 893.417 356.609C892.356 356.006 891.162 355.704 889.835 355.704Z" fill="#000000" fill-rule="nonzero" opacity="1" stroke="none"/>
<path d="M904.742 354.257L906.551 354.257L906.551 362.868L919.36 362.868L919.36 354.257L921.169 354.257L921.169 373.144L919.36 373.144L919.36 364.46L906.551 364.46L906.551 373.144L904.742 373.144L904.742 354.257Z" fill="#000000" fill-rule="nonzero" opacity="1" stroke="none"/>
<path d="M928.984 354.257L930.793 354.257L930.793 370.358L944.253 354.257L945.845 354.257L945.845 373.144L944.035 373.144L944.035 357.043L930.576 373.144L928.984 373.144L928.984 354.257Z" fill="#000000" fill-rule="nonzero" opacity="1" stroke="none"/>
<path d="M969.761 364.134L953.515 364.134C953.563 365.606 953.937 366.914 954.637 368.06C955.336 369.206 956.283 370.092 957.477 370.719C958.671 371.347 960.016 371.66 961.511 371.66C962.741 371.66 963.881 371.437 964.93 370.991C965.98 370.544 966.854 369.887 967.554 369.019L968.603 370.213C967.783 371.202 966.751 371.962 965.509 372.492C964.267 373.023 962.922 373.288 961.475 373.288C959.594 373.288 957.917 372.878 956.446 372.058C954.974 371.238 953.823 370.104 952.99 368.657C952.158 367.21 951.742 365.557 951.742 363.7C951.742 361.867 952.134 360.221 952.918 358.761C953.702 357.302 954.781 356.162 956.156 355.342C957.531 354.522 959.075 354.112 960.788 354.112C962.5 354.112 964.038 354.516 965.401 355.324C966.764 356.132 967.837 357.26 968.621 358.707C969.405 360.154 969.797 361.795 969.797 363.628L969.761 364.134ZM960.788 355.704C959.461 355.704 958.267 355.999 957.206 356.59C956.144 357.181 955.294 358.014 954.655 359.087C954.016 360.16 953.648 361.372 953.551 362.723L968.024 362.723C967.952 361.372 967.59 360.166 966.938 359.105C966.287 358.044 965.431 357.212 964.37 356.609C963.308 356.006 962.114 355.704 960.788 355.704Z" fill="#000000" fill-rule="nonzero" opacity="1" stroke="none"/>
</g>
</g>
</svg>
