<svg width="65" height="65" viewBox="0 0 65 65" fill="none" xmlns="http://www.w3.org/2000/svg">
<path d="M21.6667 16.2501V11.172C21.6667 9.64558 22.273 8.18172 23.3523 7.10241C24.4316 6.0231 25.8955 5.41675 27.4219 5.41675H37.5781C39.1045 5.41675 40.5684 6.0231 41.6477 7.10241C42.727 8.18172 43.3333 9.64558 43.3333 11.172V16.2501H48.4115C50.6561 16.2501 52.8089 17.1418 54.3961 18.729C55.9833 20.3162 56.875 22.469 56.875 24.7136V45.7032C56.875 47.9479 55.9833 50.1006 54.3961 51.6878C52.8089 53.2751 50.6561 54.1667 48.4115 54.1667H16.5885C14.3439 54.1667 12.1911 53.2751 10.6039 51.6878C9.01669 50.1006 8.125 47.9479 8.125 45.7032V24.7136C8.125 22.469 9.01669 20.3162 10.6039 18.729C12.1911 17.1418 14.3439 16.2501 16.5885 16.2501H21.6667ZM25.0521 11.172V16.2501H39.9479V11.172C39.9479 10.8608 39.8866 10.5526 39.7675 10.2651C39.6484 9.97756 39.4739 9.71632 39.2538 9.49626C39.0338 9.27621 38.7725 9.10165 38.485 8.98255C38.1975 8.86346 37.8893 8.80216 37.5781 8.80216H27.4219C26.7934 8.80216 26.1906 9.05184 25.7462 9.49626C25.3018 9.94068 25.0521 10.5434 25.0521 11.172ZM53.4896 24.7136C53.4896 23.3668 52.9546 22.0752 52.0022 21.1228C51.0499 20.1705 49.7583 19.6355 48.4115 19.6355H16.5885C15.2417 19.6355 13.9501 20.1705 12.9978 21.1228C12.0454 22.0752 11.5104 23.3668 11.5104 24.7136V29.4532C11.5104 30.8 12.0454 32.0917 12.9978 33.044C13.9501 33.9963 15.2417 34.5313 16.5885 34.5313H27.0833V33.8542C27.0833 33.136 27.3687 32.4471 27.8766 31.9392C28.3845 31.4313 29.0734 31.1459 29.7917 31.1459H35.2083C35.9266 31.1459 36.6155 31.4313 37.1234 31.9392C37.6313 32.4471 37.9167 33.136 37.9167 33.8542V34.5313H48.4115C49.7583 34.5313 51.0499 33.9963 52.0022 33.044C52.9546 32.0917 53.4896 30.8 53.4896 29.4532V24.7136ZM16.5885 37.9167C14.7568 37.9197 12.974 37.3254 11.5104 36.224V45.7032C11.5104 47.05 12.0454 48.3416 12.9978 49.294C13.9501 50.2463 15.2417 50.7813 16.5885 50.7813H48.4115C49.7583 50.7813 51.0499 50.2463 52.0022 49.294C52.9546 48.3416 53.4896 47.05 53.4896 45.7032V36.224C52.026 37.3254 50.2432 37.9197 48.4115 37.9167H37.9167V39.2709C37.9167 39.9892 37.6313 40.6781 37.1234 41.186C36.6155 41.6939 35.9266 41.9792 35.2083 41.9792H29.7917C29.0734 41.9792 28.3845 41.6939 27.8766 41.186C27.3687 40.6781 27.0833 39.9892 27.0833 39.2709V37.9167H16.5885Z" fill="#C7AC7D"/>
</svg>
