<svg width="65" height="65" viewBox="0 0 65 65" fill="none" xmlns="http://www.w3.org/2000/svg">
<path d="M28.4375 21.6667C27.3705 21.6667 26.3139 21.8769 25.3282 22.2852C24.3424 22.6935 23.4467 23.292 22.6922 24.0465C21.9377 24.801 21.3393 25.6967 20.9309 26.6824C20.5226 27.6682 20.3125 28.7248 20.3125 29.7917C20.3125 30.8587 20.5226 31.9153 20.9309 32.9011C21.3393 33.8868 21.9377 34.7825 22.6922 35.537C23.4467 36.2915 24.3424 36.8899 25.3282 37.2983C26.3139 37.7066 27.3705 37.9167 28.4375 37.9167C30.5923 37.9167 32.659 37.0607 34.1827 35.537C35.7064 34.0133 36.5625 31.9466 36.5625 29.7917C36.5625 27.6369 35.7064 25.5702 34.1827 24.0465C32.659 22.5228 30.5923 21.6667 28.4375 21.6667ZM24.375 29.7917C24.375 28.7143 24.803 27.681 25.5648 26.9191C26.3267 26.1573 27.36 25.7292 28.4375 25.7292C29.5149 25.7292 30.5482 26.1573 31.3101 26.9191C32.0719 27.681 32.5 28.7143 32.5 29.7917C32.5 30.8692 32.0719 31.9025 31.3101 32.6644C30.5482 33.4262 29.5149 33.8542 28.4375 33.8542C27.36 33.8542 26.3267 33.4262 25.5648 32.6644C24.803 31.9025 24.375 30.8692 24.375 29.7917ZM5.41663 19.6355C5.41663 18.0193 6.05864 16.4694 7.20144 15.3266C8.34424 14.1838 9.89421 13.5417 11.5104 13.5417H45.3645C46.1648 13.5417 46.9572 13.6994 47.6965 14.0056C48.4358 14.3118 49.1076 14.7607 49.6735 15.3266C50.2393 15.8924 50.6882 16.5642 50.9944 17.3035C51.3007 18.0428 51.4583 18.8353 51.4583 19.6355V30.263C50.127 29.9486 48.7637 29.7905 47.3958 29.7917V25.7292H45.3645C43.7484 25.7292 42.1984 25.0872 41.0556 23.9444C39.9128 22.8016 39.2708 21.2517 39.2708 19.6355V17.6042H17.6041V19.6355C17.6041 20.4357 17.4465 21.2281 17.1403 21.9675C16.834 22.7068 16.3852 23.3786 15.8193 23.9444C15.2535 24.5103 14.5817 24.9591 13.8424 25.2654C13.103 25.5716 12.3106 25.7292 11.5104 25.7292H9.47913V33.8542H11.5104C13.1265 33.8542 14.6765 34.4963 15.8193 35.6391C16.9621 36.7819 17.6041 38.3318 17.6041 39.948V41.9792H30.6393C30.2222 43.2738 29.9487 44.6334 29.8431 46.0417H11.5104C9.89421 46.0417 8.34424 45.3997 7.20144 44.2569C6.05864 43.1141 5.41663 41.5642 5.41663 39.948V19.6355ZM11.9193 50.1042H30.0002C30.2168 51.5207 30.6041 52.883 31.1404 54.1667H18.9583C17.5316 54.1672 16.13 53.792 14.8944 53.0788C13.6587 52.3657 12.6327 51.3398 11.9193 50.1042ZM55.5208 31.7742C57.007 32.5491 58.375 33.5322 59.5833 34.6938V27.0834C59.5837 25.6568 59.2085 24.2551 58.4954 23.0195C57.7822 21.7839 56.7563 20.7578 55.5208 20.0445V31.7742ZM11.5104 17.6042C10.9717 17.6042 10.455 17.8183 10.0741 18.1992C9.69313 18.5801 9.47913 19.0968 9.47913 19.6355V21.6667H11.5104C12.0491 21.6667 12.5658 21.4527 12.9467 21.0718C13.3276 20.6909 13.5416 20.1742 13.5416 19.6355V17.6042H11.5104ZM47.3958 21.6667V19.6355C47.3958 19.0968 47.1818 18.5801 46.8009 18.1992C46.4199 17.8183 45.9033 17.6042 45.3645 17.6042H43.3333V19.6355C43.3333 20.7567 44.2433 21.6667 45.3645 21.6667H47.3958ZM9.47913 39.948C9.47913 41.0692 10.3891 41.9792 11.5104 41.9792H13.5416V39.948C13.5416 39.4093 13.3276 38.8926 12.9467 38.5117C12.5658 38.1308 12.0491 37.9167 11.5104 37.9167H9.47913V39.948ZM38.6695 37.8517C38.8716 38.552 38.9303 39.2858 38.8422 40.0092C38.754 40.7326 38.5207 41.4309 38.1563 42.062C37.7919 42.6932 37.3039 43.2443 36.7215 43.6824C36.1391 44.1205 35.4743 44.4366 34.7668 44.6117L33.1852 45.0017C32.93 46.6244 32.9355 48.2775 33.2014 49.8984L34.6639 50.2505C35.3778 50.4225 36.0492 50.7377 36.6375 51.1772C37.2257 51.6167 37.7184 52.1712 38.0857 52.807C38.453 53.4428 38.6872 54.1467 38.7741 54.8758C38.861 55.6049 38.7987 56.3441 38.591 57.0484L38.0845 58.7574C39.2762 59.8028 40.6304 60.6505 42.1037 61.2545L43.4416 59.8488C43.9476 59.3166 44.5565 58.8928 45.2314 58.6032C45.9063 58.3136 46.633 58.1643 47.3674 58.1643C48.1017 58.1643 48.8284 58.3136 49.5033 58.6032C50.1782 58.8928 50.7871 59.3166 51.2931 59.8488L52.6418 61.2707C54.1078 60.6736 55.465 59.8381 56.6583 58.798L56.122 56.9401C55.9199 56.2399 55.8612 55.5061 55.9494 54.7826C56.0376 54.0592 56.2709 53.361 56.6353 52.7298C56.9996 52.0987 57.4877 51.5475 58.0701 51.1094C58.6525 50.6713 59.3173 50.3552 60.0247 50.1801L61.6064 49.7901C61.8615 48.1674 61.8561 46.5144 61.5902 44.8934L60.1277 44.5413C59.4138 44.3694 58.7424 44.0541 58.1541 43.6146C57.5659 43.1751 57.0731 42.6206 56.7058 41.9848C56.3385 41.349 56.1043 40.6451 56.0175 39.916C55.9306 39.1869 55.9929 38.4477 56.2006 37.7434L56.707 36.0372C55.5147 34.9882 54.1565 34.1444 52.6879 33.5401L51.3527 34.943C50.8466 35.4757 50.2375 35.8998 49.5624 36.1896C48.8873 36.4795 48.1603 36.6289 47.4256 36.6289C46.6909 36.6289 45.9639 36.4795 45.2887 36.1896C44.6136 35.8998 44.0045 35.4757 43.4985 34.943L42.1497 33.5211C40.6839 34.1174 39.3268 34.952 38.1333 35.9911L38.6695 37.8517ZM47.3958 51.4584C45.2291 51.4584 43.4687 49.6384 43.4687 47.3959C43.4687 45.1534 45.2291 43.3334 47.3958 43.3334C49.5625 43.3334 51.3229 45.1534 51.3229 47.3959C51.3229 49.6384 49.5625 51.4584 47.3958 51.4584Z" fill="#C7AC7D"/>
</svg>
