<svg width="65" height="65" viewBox="0 0 65 65" fill="none" xmlns="http://www.w3.org/2000/svg">
<g clip-path="url(#clip0_534_7)">
<path d="M60.8315 6.50002L55.8152 1.34241C55.3913 0.918499 54.8261 0.706543 54.2609 0.706543C53.6957 0.706543 53.1304 0.918499 52.7772 1.34241L23.1739 31.3696C22.962 31.5815 22.8207 31.7935 22.6794 32.0761L19.3587 40.4837C19.0761 41.2609 19.2174 42.1794 19.8533 42.7446C20.2772 43.1685 20.7717 43.3805 21.337 43.3805C21.6196 43.3805 21.8315 43.3098 22.1141 43.2392L30.4511 39.9185C30.7337 39.7772 30.9457 39.6359 31.1576 39.4239L60.7609 9.39676C61.6794 8.61959 61.6794 7.2772 60.8315 6.50002ZM28.5435 36.1739L25.1522 37.5163L26.4946 34.0544L54.2609 5.86415L56.3804 7.98372L28.5435 36.1739ZM50.163 33.6305V62.1739C50.163 63.7283 48.75 65 47.1957 65H7.06522C5.51087 65 4.23914 63.7283 4.23914 62.1739V8.33698C4.23914 6.78263 5.51087 5.6522 7.06522 5.6522H36.4565C38.0109 5.6522 39.2826 6.92393 39.2826 8.47828C39.2826 10.0326 38.0109 11.3044 36.4565 11.3044H9.89131V59.3478H44.5109V33.6305C44.5109 32.0761 45.7826 30.8044 47.337 30.8044C48.8913 30.8044 50.163 32.0761 50.163 33.6305Z" fill="#C7AC7D"/>
</g>
<defs>
<clipPath id="clip0_534_7">
<rect width="65" height="65" fill="white"/>
</clipPath>
</defs>
</svg>
