<svg width="65" height="65" viewBox="0 0 65 65" fill="none" xmlns="http://www.w3.org/2000/svg">
<path opacity="0.5" fill-rule="evenodd" clip-rule="evenodd" d="M24.8168 10.2249C25.153 11.2952 24.5578 12.4353 23.4876 12.7715C14.189 15.692 7.44794 24.3802 7.44794 34.6376C7.44794 47.2931 17.7072 57.5523 30.3626 57.5523C40.6201 57.5523 49.3082 50.8112 52.2289 41.5127C52.565 40.4424 53.7052 39.8473 54.7753 40.1834C55.8456 40.5195 56.4409 41.6598 56.1045 42.7301C52.6676 53.6731 42.4453 61.6148 30.3626 61.6148C15.4636 61.6148 3.38544 49.5367 3.38544 34.6376C3.38544 22.555 11.3271 12.3327 22.2702 8.89564C23.3405 8.55948 24.4806 9.15461 24.8168 10.2249Z" fill="#C7AC7D"/>
<path d="M59.348 26.9406C56.4728 16.6411 48.3589 8.52714 38.0594 5.6521C33.608 4.40952 29.7917 8.27185 29.7917 12.8934V31.0243C29.7917 33.3351 31.665 35.2084 33.9758 35.2084H52.1067C56.7282 35.2084 60.5906 31.3921 59.348 26.9406Z" fill="#C7AC7D"/>
</svg>
