<svg width="65" height="65" viewBox="0 0 65 65" fill="none" xmlns="http://www.w3.org/2000/svg">
<path d="M24.375 29.25C23.5853 29.25 22.8377 29.4385 22.178 29.77C24.7723 30.4147 27.1889 31.633 29.25 33.3353V32.5H40.625C41.056 32.5 41.4693 32.6712 41.774 32.976C42.0788 33.2807 42.25 33.694 42.25 34.125V39H33.8C34.3287 40.0313 34.7544 41.1147 35.0773 42.25H42.25V47.125C42.25 47.556 42.0788 47.9693 41.774 48.274C41.4693 48.5788 41.056 48.75 40.625 48.75H35.6785C35.5789 49.8496 35.3776 50.9376 35.0773 52H40.625C41.9179 52 43.1579 51.4864 44.0721 50.5721C44.9864 49.6579 45.5 48.4179 45.5 47.125V34.125C45.5 32.8321 44.9864 31.5921 44.0721 30.6779C43.1579 29.7636 41.9179 29.25 40.625 29.25H24.375ZM13 29.9227C14.0624 29.6224 15.1504 29.4211 16.25 29.3215V13C16.25 12.138 16.5924 11.3114 17.2019 10.7019C17.8114 10.0924 18.638 9.75 19.5 9.75H32.5V21.125C32.5 22.4179 33.0136 23.6579 33.9279 24.5721C34.8421 25.4864 36.0821 26 37.375 26H48.75V52C48.75 52.862 48.4076 53.6886 47.7981 54.2981C47.1886 54.9076 46.362 55.25 45.5 55.25H33.8C33.2086 56.4078 32.4926 57.4975 31.6647 58.5H45.5C47.2239 58.5 48.8772 57.8152 50.0962 56.5962C51.3152 55.3772 52 53.7239 52 52V24.0955C51.9989 22.803 51.4845 21.5639 50.57 20.6505L37.8495 7.92675C36.9356 7.01344 35.6965 6.50028 34.4045 6.5H19.5C17.7761 6.5 16.1228 7.18482 14.9038 8.40381C13.6848 9.62279 13 11.2761 13 13V29.9227ZM48.0773 22.75H37.375C36.944 22.75 36.5307 22.5788 36.226 22.274C35.9212 21.9693 35.75 21.556 35.75 21.125V10.4227L48.0773 22.75ZM32.5 47.125C32.5 51.0038 30.9592 54.7237 28.2164 57.4664C25.4737 60.2092 21.7538 61.75 17.875 61.75C13.9962 61.75 10.2763 60.2092 7.53356 57.4664C4.79084 54.7237 3.25 51.0038 3.25 47.125C3.25 43.2462 4.79084 39.5263 7.53356 36.7836C10.2763 34.0408 13.9962 32.5 17.875 32.5C21.7538 32.5 25.4737 34.0408 28.2164 36.7836C30.9592 39.5263 32.5 43.2462 32.5 47.125ZM25.5255 41.0995C25.3746 40.9482 25.1952 40.8281 24.9978 40.7462C24.8004 40.6643 24.5887 40.6221 24.375 40.6221C24.1613 40.6221 23.9496 40.6643 23.7522 40.7462C23.5548 40.8281 23.3754 40.9482 23.2245 41.0995L14.625 49.7023L12.5255 47.5995C12.2204 47.2944 11.8065 47.1229 11.375 47.1229C10.9435 47.1229 10.5296 47.2944 10.2245 47.5995C9.91937 47.9046 9.74795 48.3185 9.74795 48.75C9.74795 49.1815 9.91937 49.5954 10.2245 49.9005L13.4745 53.1505C13.6254 53.3018 13.8048 53.4219 14.0022 53.5038C14.1996 53.5857 14.4113 53.6279 14.625 53.6279C14.8387 53.6279 15.0504 53.5857 15.2478 53.5038C15.4452 53.4219 15.6246 53.3018 15.7755 53.1505L25.5255 43.4005C25.6768 43.2496 25.7969 43.0702 25.8788 42.8728C25.9607 42.6754 26.0029 42.4637 26.0029 42.25C26.0029 42.0363 25.9607 41.8246 25.8788 41.6272C25.7969 41.4298 25.6768 41.2504 25.5255 41.0995Z" fill="#C7AC7D"/>
</svg>
